<svg xmlns="http://www.w3.org/2000/svg" width="1200" height="900" viewBox="0 0 1200 900" role="img" aria-label="1AB@0:B=0O 8;;NAB@0F8O">
  <defs>
    <linearGradient id="bg" x1="0" y1="0" x2="1" y2="1">
      <stop offset="0%" stop-color="#fbf8f2"/>
      <stop offset="55%" stop-color="#f6f1e7"/>
      <stop offset="100%" stop-color="#f0e6d6"/>
    </linearGradient>
    <radialGradient id="leaf" cx="35%" cy="30%" r="70%">
      <stop offset="0%" stop-color="rgba(124,198,164,0.85)"/>
      <stop offset="70%" stop-color="rgba(45,106,79,0.35)"/>
      <stop offset="100%" stop-color="rgba(45,106,79,0.0)"/>
    </radialGradient>
    <radialGradient id="sun" cx="60%" cy="35%" r="60%">
      <stop offset="0%" stop-color="rgba(204,153,109,0.55)"/>
      <stop offset="70%" stop-color="rgba(204,153,109,0.12)"/>
      <stop offset="100%" stop-color="rgba(204,153,109,0.0)"/>
    </radialGradient>
    <filter id="grain" x="-20%" y="-20%" width="140%" height="140%">
      <feTurbulence type="fractalNoise" baseFrequency="0.9" numOctaves="2" stitchTiles="stitch" />
      <feColorMatrix type="matrix" values="
        1 0 0 0 0
        0 1 0 0 0
        0 0 1 0 0
        0 0 0 0.06 0" />
    </filter>
  </defs>

  <rect width="1200" height="900" fill="url(#bg)"/>
  <circle cx="420" cy="300" r="420" fill="url(#leaf)"/>
  <circle cx="760" cy="330" r="380" fill="url(#sun)"/>

  <path d="M140 680C260 520 380 560 520 460C650 370 760 320 920 360C1060 395 1100 510 1120 610"
        fill="none" stroke="rgba(45,106,79,0.25)" stroke-width="28" stroke-linecap="round" opacity="0.55"/>
  <path d="M120 710C260 585 390 620 520 520C660 412 790 370 930 410C1040 440 1090 535 1110 635"
        fill="none" stroke="rgba(31,35,40,0.12)" stroke-width="18" stroke-linecap="round" opacity="0.35"/>

  <g opacity="0.22">
    <circle cx="260" cy="260" r="6" fill="rgba(31,35,40,0.55)"/>
    <circle cx="300" cy="240" r="4" fill="rgba(31,35,40,0.55)"/>
    <circle cx="340" cy="270" r="5" fill="rgba(31,35,40,0.55)"/>
    <circle cx="880" cy="260" r="6" fill="rgba(31,35,40,0.45)"/>
    <circle cx="920" cy="290" r="4" fill="rgba(31,35,40,0.45)"/>
    <circle cx="950" cy="250" r="5" fill="rgba(31,35,40,0.45)"/>
  </g>

  <rect width="1200" height="900" filter="url(#grain)" opacity="0.8"/>
</svg>
