<svg xmlns="http://www.w3.org/2000/svg" width="1200" height="900" viewBox="0 0 1200 900" role="img" aria-label="Заглушка карты">
  <defs>
    <linearGradient id="bg" x1="0" y1="0" x2="1" y2="1">
      <stop offset="0%" stop-color="#07090c"/>
      <stop offset="55%" stop-color="#06080b"/>
      <stop offset="100%" stop-color="#040609"/>
    </linearGradient>
    <radialGradient id="red" cx="22%" cy="18%" r="75%">
      <stop offset="0%" stop-color="rgba(255, 45, 45, 0.22)"/>
      <stop offset="60%" stop-color="rgba(255, 45, 45, 0.10)"/>
      <stop offset="100%" stop-color="rgba(255, 45, 45, 0)"/>
    </radialGradient>
    <radialGradient id="mist" cx="72%" cy="32%" r="70%">
      <stop offset="0%" stop-color="rgba(140, 160, 190, 0.12)"/>
      <stop offset="70%" stop-color="rgba(140, 160, 190, 0.06)"/>
      <stop offset="100%" stop-color="rgba(140, 160, 190, 0)"/>
    </radialGradient>
    <filter id="paper" x="-20%" y="-20%" width="140%" height="140%">
      <feTurbulence type="fractalNoise" baseFrequency="0.8" numOctaves="2" stitchTiles="stitch"/>
      <feColorMatrix type="matrix" values="
        1 0 0 0 0
        0 1 0 0 0
        0 0 1 0 0
        0 0 0 0.10 0"/>
    </filter>
    <filter id="glow" x="-50%" y="-50%" width="200%" height="200%">
      <feGaussianBlur stdDeviation="6" result="b"/>
      <feMerge>
        <feMergeNode in="b"/>
        <feMergeNode in="SourceGraphic"/>
      </feMerge>
    </filter>
  </defs>

  <rect width="1200" height="900" fill="url(#bg)"/>
  <circle cx="420" cy="270" r="560" fill="url(#red)"/>
  <circle cx="820" cy="300" r="520" fill="url(#mist)"/>
  <rect width="1200" height="900" filter="url(#paper)" opacity="0.9"/>

  <g opacity="0.9">
    <path d="M280 690c70-40 120-120 170-250c48-124 150-220 296-240c150-20 272 56 344 118"
      fill="none" stroke="rgba(255, 45, 45, 0.22)" stroke-width="18" stroke-linecap="round"/>
    <path d="M300 725c86-20 154-104 208-246c52-136 154-248 320-270c148-20 274 58 336 114"
      fill="none" stroke="rgba(232, 238, 246, 0.10)" stroke-width="12" stroke-linecap="round"/>
  </g>

  <g transform="translate(720 250)" opacity="0.95">
    <rect x="-74" y="-120" width="148" height="240" rx="18" fill="rgba(8,10,14,0.25)" stroke="rgba(232,238,246,0.10)"/>
    <g filter="url(#glow)">
      <path d="M-52 -66v132" stroke="rgba(255,45,45,0.55)" stroke-width="6" stroke-linecap="round"/>
      <path d="M52 -66v132" stroke="rgba(255,45,45,0.55)" stroke-width="6" stroke-linecap="round"/>
      <path d="M-52 -66c38 8 68 8 104 0" stroke="rgba(255,45,45,0.55)" stroke-width="6" stroke-linecap="round"/>
      <path d="M-52 66c38 -8 68 -8 104 0" stroke="rgba(255,45,45,0.55)" stroke-width="6" stroke-linecap="round"/>
    </g>
    <circle cx="0" cy="0" r="6" fill="rgba(255,45,45,0.75)"/>
    <circle cx="0" cy="0" r="24" fill="none" stroke="rgba(255,45,45,0.22)" stroke-width="2"/>
  </g>
</svg>
