<svg xmlns="http://www.w3.org/2000/svg" width="1200" height="900" viewBox="0 0 1200 900" role="img" aria-label="03;CH:0 :0@BK">
  <defs>
    <linearGradient id="bg" x1="0" y1="0" x2="1" y2="1">
      <stop offset="0%" stop-color="#0b0f12"/>
      <stop offset="55%" stop-color="#0a0d10"/>
      <stop offset="100%" stop-color="#07090b"/>
    </linearGradient>
    <radialGradient id="gold" cx="28%" cy="28%" r="75%">
      <stop offset="0%" stop-color="rgba(255, 242, 204, 0.55)"/>
      <stop offset="60%" stop-color="rgba(214, 179, 106, 0.18)"/>
      <stop offset="100%" stop-color="rgba(214, 179, 106, 0)"/>
    </radialGradient>
    <filter id="paper" x="-20%" y="-20%" width="140%" height="140%">
      <feTurbulence type="fractalNoise" baseFrequency="0.8" numOctaves="2" stitchTiles="stitch"/>
      <feColorMatrix type="matrix" values="
        1 0 0 0 0
        0 1 0 0 0
        0 0 1 0 0
        0 0 0 0.10 0"/>
    </filter>
    <linearGradient id="stroke" x1="0" y1="0" x2="0" y2="1">
      <stop offset="0%" stop-color="rgba(255, 242, 204, 0.55)"/>
      <stop offset="100%" stop-color="rgba(214, 179, 106, 0.22)"/>
    </linearGradient>
  </defs>

  <rect width="1200" height="900" fill="url(#bg)"/>
  <circle cx="420" cy="290" r="520" fill="url(#gold)"/>
  <rect width="1200" height="900" filter="url(#paper)" opacity="0.9"/>

  <g opacity="0.95">
    <path d="M308 670c48-18 88-74 132-188c40-104 122-190 244-206c120-16 230 36 300 98"
      fill="none" stroke="rgba(214, 179, 106, 0.30)" stroke-width="18" stroke-linecap="round"/>
    <path d="M320 700c64-10 120-64 166-182c42-108 120-204 252-220c120-15 232 38 298 94"
      fill="none" stroke="rgba(245, 242, 234, 0.10)" stroke-width="12" stroke-linecap="round"/>
  </g>

  <g transform="translate(720 250)" opacity="0.95">
    <circle cx="0" cy="0" r="92" fill="none" stroke="url(#stroke)" stroke-width="3"/>
    <path d="M-52 6c12-24 32-40 52-40s40 16 52 40c-12 24-32 40-52 40s-40-16-52-40Z"
      fill="none" stroke="rgba(214, 179, 106, 0.55)" stroke-width="4"/>
    <circle cx="0" cy="6" r="10" fill="rgba(214, 179, 106, 0.72)"/>
    <path d="M0 -120v-24M0 120v24M-120 0h-24M120 0h24" stroke="rgba(214, 179, 106, 0.24)" stroke-width="4" stroke-linecap="round"/>
    <path d="M-90 -90l-18-18M90 90l18 18M-90 90l-18 18M90 -90l18-18" stroke="rgba(214, 179, 106, 0.18)" stroke-width="4" stroke-linecap="round"/>
  </g>
</svg>
