<svg xmlns="http://www.w3.org/2000/svg" width="1200" height="630" viewBox="0 0 1200 630" role="img" aria-label="Карта дня — OG">
  <defs>
    <linearGradient id="bg" x1="0" y1="0" x2="1" y2="1">
      <stop offset="0%" stop-color="#0b0f12"/>
      <stop offset="55%" stop-color="#0a0d10"/>
      <stop offset="100%" stop-color="#07090b"/>
    </linearGradient>
    <radialGradient id="gold" cx="22%" cy="18%" r="70%">
      <stop offset="0%" stop-color="rgba(255, 242, 204, 0.40)"/>
      <stop offset="60%" stop-color="rgba(214, 179, 106, 0.14)"/>
      <stop offset="100%" stop-color="rgba(214, 179, 106, 0)"/>
    </radialGradient>
    <radialGradient id="gold2" cx="78%" cy="24%" r="66%">
      <stop offset="0%" stop-color="rgba(214, 179, 106, 0.22)"/>
      <stop offset="65%" stop-color="rgba(214, 179, 106, 0.08)"/>
      <stop offset="100%" stop-color="rgba(214, 179, 106, 0)"/>
    </radialGradient>
    <filter id="shadow" x="-20%" y="-20%" width="140%" height="140%">
      <feDropShadow dx="0" dy="26" stdDeviation="22" flood-color="rgba(0,0,0,0.55)"/>
    </filter>
    <filter id="paper" x="-20%" y="-20%" width="140%" height="140%">
      <feTurbulence type="fractalNoise" baseFrequency="0.8" numOctaves="2" stitchTiles="stitch"/>
      <feColorMatrix type="matrix" values="
        1 0 0 0 0
        0 1 0 0 0
        0 0 1 0 0
        0 0 0 0.08 0"/>
    </filter>
    <linearGradient id="stroke" x1="0" y1="0" x2="0" y2="1">
      <stop offset="0%" stop-color="rgba(255, 242, 204, 0.55)"/>
      <stop offset="100%" stop-color="rgba(214, 179, 106, 0.18)"/>
    </linearGradient>
  </defs>

  <rect width="1200" height="630" fill="url(#bg)"/>
  <circle cx="260" cy="140" r="360" fill="url(#gold)"/>
  <circle cx="980" cy="190" r="320" fill="url(#gold2)"/>
  <rect width="1200" height="630" filter="url(#paper)" opacity="0.9"/>

  <g filter="url(#shadow)">
    <rect x="120" y="126" width="440" height="378" rx="28" fill="rgba(10,13,16,0.72)" stroke="rgba(245,242,234,0.16)"/>
    <rect x="140" y="150" width="400" height="220" rx="22" fill="rgba(214,179,106,0.08)" stroke="rgba(214,179,106,0.16)"/>
    <path d="M170 330C240 250 310 275 380 220C450 165 520 150 560 165" fill="none" stroke="rgba(214,179,106,0.32)" stroke-width="18" stroke-linecap="round" opacity="0.75"/>
    <text x="140" y="418" font-family="ui-sans-serif, system-ui, -apple-system, Segoe UI, Roboto, Arial" font-size="22" fill="rgba(245,242,234,0.65)" letter-spacing="2">ВОПРОС ДНЯ</text>
    <text x="140" y="460" font-family="ui-sans-serif, system-ui, -apple-system, Segoe UI, Roboto, Arial" font-size="28" fill="rgba(245,242,234,0.92)">
      <tspan x="140" dy="0">Что во мне просит внимания</tspan>
      <tspan x="140" dy="36">— тихо и без спешки?</tspan>
    </text>
    <g transform="translate(470 214)" opacity="0.95">
      <circle cx="0" cy="0" r="56" fill="none" stroke="url(#stroke)" stroke-width="3"/>
      <path d="M-30 4c7-14 18-24 30-24s23 10 30 24c-7 14-18 24-30 24s-23-10-30-24Z"
        fill="none" stroke="rgba(214,179,106,0.55)" stroke-width="4"/>
      <circle cx="0" cy="4" r="7" fill="rgba(214,179,106,0.72)"/>
    </g>
  </g>

  <g>
    <text x="620" y="250" font-family="ui-sans-serif, system-ui, -apple-system, Segoe UI, Roboto, Arial" font-size="58" fill="rgba(245,242,234,0.94)" letter-spacing="-1">
      Карта дня
    </text>
    <text x="620" y="312" font-family="ui-sans-serif, system-ui, -apple-system, Segoe UI, Roboto, Arial" font-size="30" fill="rgba(245,242,234,0.78)">
      Одна карта. Один вопрос. Пара минут тишины.
    </text>
    <text x="620" y="372" font-family="ui-sans-serif, system-ui, -apple-system, Segoe UI, Roboto, Arial" font-size="22" fill="rgba(245,242,234,0.64)">
      Бережная саморефлексия в Telegram
    </text>
  </g>
</svg>
