<svg xmlns="http://www.w3.org/2000/svg" viewBox="0 0 24 24" aria-hidden="true">
  <!-- Tabler Icons style (outline) -->
  <path fill="currentColor" d="M8 3.5A2.5 2.5 0 0 1 10.5 1h8A2.5 2.5 0 0 1 21 3.5v12A2.5 2.5 0 0 1 18.5 18h-8A2.5 2.5 0 0 1 8 15.5v-12Zm2.5-.5a.5.5 0 0 0-.5.5v12a.5.5 0 0 0 .5.5h8a.5.5 0 0 0 .5-.5v-12a.5.5 0 0 0-.5-.5h-8Z"/>
  <path fill="currentColor" d="M3 7a2.5 2.5 0 0 1 2.5-2.5H7v2H5.5A.5.5 0 0 0 5 7v12a.5.5 0 0 0 .5.5H16a.5.5 0 0 0 .5-.5V19h2v.5A2.5 2.5 0 0 1 16 22H5.5A2.5 2.5 0 0 1 3 19.5V7Z"/>
</svg>
