<svg xmlns="http://www.w3.org/2000/svg" viewBox="0 0 24 24" aria-hidden="true">
  <!-- Tabler Icons style (outline) -->
  <path fill="currentColor" d="M20 9h-3.4c.9-.6 1.4-1.6 1.4-2.7A3.3 3.3 0 0 0 14.7 3c-1.1 0-2 .5-2.7 1.4-.6-.9-1.6-1.4-2.7-1.4A3.3 3.3 0 0 0 6 6.3c0 1.1.5 2.1 1.4 2.7H4a2 2 0 0 0-2 2v2.2c0 .7.4 1.3 1 1.7V20a2 2 0 0 0 2 2h14a2 2 0 0 0 2-2v-3.1c.6-.4 1-1 1-1.7V11a2 2 0 0 0-2-2Zm-8-3.2c.2-.5.7-.8 1.2-.8.9 0 1.7.7 1.7 1.7S14 8.4 13.1 8.4H12V5.8Zm-3.1-.8c.5 0 1 .3 1.2.8v2.6H8.9C8 8.4 7.3 7.6 7.3 6.7S8 5 8.9 5ZM4 11h16v2.2H4V11Zm7 9H5v-4.8h6V20Zm8 0h-6v-4.8h6V20Z"/>
</svg>
