<svg xmlns="http://www.w3.org/2000/svg" viewBox="0 0 24 24" aria-hidden="true">
  <path fill="currentColor" d="M20 8.2h-2.2c.5-.5.8-1.2.8-2 0-1.7-1.4-3.1-3.1-3.1-1.2 0-2.2.7-2.7 1.7-.5-1-1.6-1.7-2.7-1.7-1.7 0-3.1 1.4-3.1 3.1 0 .8.3 1.5.8 2H4a1.5 1.5 0 0 0-1.5 1.5v2.1c0 .6.4 1.1 1 1.4V20a2 2 0 0 0 2 2h13a2 2 0 0 0 2-2v-4.8c.6-.2 1-.8 1-1.4v-2.1A1.5 1.5 0 0 0 20 8.2ZM10.1 4.9c.8 0 1.5.6 1.7 1.4l.2 1.9H10c-1 0-1.9-.9-1.9-1.9s.9-1.4 2-1.4Zm5.8 0c1.1 0 2 .4 2 1.4 0 1-0.9 1.9-1.9 1.9h-2l.2-1.9c.2-.8.9-1.4 1.7-1.4ZM11 20H5.5a.5.5 0 0 1-.5-.5v-4.2H11V20Zm8 0h-6v-4.7h6v4.2a.5.5 0 0 1-.5.5ZM20 13.7H4v-3.9h16v3.9Z"/>
</svg>
